<?xml version="1.0" encoding="UTF-8"?>
<svg id="Layer_1" xmlns="http://www.w3.org/2000/svg" viewBox="0 0 1123.13 341.7">
    <path d="M334.2,170.85c-3.67,217.82-323.07,217.78-326.7,0,3.67-217.81,323.07-217.78,326.7,0Z"
          style="fill:none; stroke:white; stroke-miterlimit:10; stroke-width:15px;"/>
    <path d="M259.52,274.94c.07,1.24.22,6.35-3.49,11-3.94,4.95-9.39,5.79-10.53,5.94-50.43.13-100.85.26-151.28.38-1.61-.6-4.98-2.1-7.85-5.55-3.33-4-4.03-8.26-4.21-9.96.19-58.08.38-116.17.57-174.25.06-1.14.43-5.76,4.21-9.58,3.38-3.41,7.39-4.06,8.62-4.21,8.53.05,17.06.1,25.59.16-2.05,8.93,2.88,18.81,12.13,23.01,25.47.26,50.94.51,76.41.77,10.75-3.51,17.05-13.87,15.51-23.14,7.4.05,14.81.09,22.21.14,1.82.41,5.04,1.4,8.04,4.04,5.73,5.03,6.19,12.06,6.25,13.52-.73,55.91-1.46,111.82-2.18,167.73Z"
          style="fill:none; stroke:white; stroke-miterlimit:10; stroke-width:15px;"/>
    <path d="M209.69,112.65c-25.47-.26-50.94-.51-76.41-.77-9.25-4.2-14.18-14.08-12.13-23.01,2.4-10.48,13.97-17.71,25.73-14.71,1.94-12.64,12.98-21.91,25.47-21.64,11.96.26,22.29,9.19,24.32,21.25,13.48-4.15,26.68,4.51,28.53,15.74,1.54,9.27-4.76,19.63-15.51,23.14Z"
          style="fill:none; stroke:white; stroke-linecap:round; stroke-linejoin:round; stroke-width:13px;"/>
    <path d="M174.51,226.34h-7.09v-10.74c-5.27-.86-9.67-3.12-13.21-6.78-3.54-3.66-5.56-9.83-6.06-18.51h12.43c-.03.45-.05.78-.05.98,0,2.86.6,5.36,1.81,7.49,1.21,2.13,2.9,3.54,5.08,4.24v-26.03c-7.11-4.01-11.91-7.97-14.39-11.88s-3.72-8.2-3.72-12.86c0-5.65,1.66-10.48,4.98-14.49,3.32-4.01,7.7-6.28,13.13-6.81v-3.19h7.09v3.19c5.84.57,10.48,2.87,13.94,6.88,3.45,4.01,5.18,9.25,5.18,15.71h-12.43c-.57-6.42-2.8-9.9-6.69-10.44v20.44l6.84,3.74c3.86,2.13,6.93,4.55,9.23,7.27,2.3,2.72,3.89,5.56,4.78,8.5.89,2.95,1.33,5.93,1.33,8.96,0,6.59-2,12.11-6.01,16.57-4.01,4.46-9.4,6.79-16.18,7v10.74ZM167.41,143.16c-3.79.86-5.69,3.28-5.69,7.24,0,3.4,1.9,6.47,5.69,9.21v-16.45ZM174.51,203.57c2.88.04,5.26-.94,7.12-2.95,1.86-2,2.79-4.4,2.79-7.18,0-5.36-3.3-9.6-9.91-12.71v22.84Z"
          style="fill:white;"/>
    <rect x="211.15" y="180.41" width="23.49" height="95.74" style="fill:white;"/>
    <rect x="176.17" y="223.69" width="25.28" height="52.98" style="fill:white;"/>
    <rect x="141.13" y="232.32" width="24.13" height="44.35" style="fill:white;"/>
    <rect x="106.09" y="250.18" width="24.26" height="26.49" style="fill:white;"/>
    <path d="M434.37,218.81h-27.83l-6.18,22.37h-36.92l34.56-106.39h44.56l34.92,106.39h-36.92l-6.18-22.37ZM429.64,195.71l-9.09-32.01-8.91,32.01h18Z"
          style="fill:white;"/>
    <path d="M482.93,163.89h35.28v47.1c0,5.09,4,8.91,8.91,8.91,5.46,0,9.09-3.82,9.09-8.91v-47.1h35.28v77.29h-34.74l-.55-8.37c-8.18,8.73-17.28,10.73-22.55,10.73-19.82,0-30.74-13.82-30.74-35.83v-43.83Z"
          style="fill:white;"/>
    <path d="M582.41,163.89h12.18v-21.1l35.28-8v29.1h16v23.28h-16v23.1c0,3.46,2.36,6.37,8.55,6.37,2,0,4.55-.36,7.46-1.09v24.73c-4.73,2.36-16,3.27-21.28,3.27-19.82,0-30.01-13.82-30.01-35.83v-20.55h-12.18v-23.28Z"
          style="fill:white;"/>
    <path d="M699.36,161.16c33.83,0,44.38,22.01,44.38,41.1s-10.55,41.28-44.38,41.28-44.38-21.64-44.38-41.28,10.55-41.1,44.38-41.1ZM710.09,202.26c0-11.46-4.18-17.46-10.73-17.46s-10.73,6-10.73,17.46c0,12.73,4.73,17.64,10.73,17.64s10.73-4.73,10.73-17.64Z"
          style="fill:white;"/>
    <path d="M807.03,132.24c31.83,0,50.38,16.91,52.2,39.83h-36.92c-1.27-9.64-8.55-14.73-15.28-14.73-12.37,0-18.92,14.73-18.92,31.65,0,15.64,6.55,29.46,18.92,29.46,6.73,0,14-4.18,15.28-13.82h36.92c-1.82,22.92-20.37,38.92-52.2,38.92-40.74,0-54.2-32.19-54.2-54.56,0-23.83,13.46-56.74,54.2-56.74Z"
          style="fill:white;"/>
    <path d="M949.98,205.53l17.1,35.65h-35.28l-13.82-28.74h-10.73v28.74h-35.28v-106.39h50.56c33.83,0,44.56,22.37,44.56,38.74,0,10.73-4.55,24.01-17.1,32.01ZM907.24,184.98h14.55c6.55,0,11.64-4,11.64-11.28s-5.09-11.46-11.64-11.46h-14.55v22.73Z"
          style="fill:white;"/>
    <path d="M1031.64,241.18l-18.55-63.65-3.64,63.65h-32.37l6.55-106.39h46.92l16.37,59.83,16.37-59.83h46.92l6.55,106.39h-32.37l-3.64-63.65-18.55,63.65h-30.55Z"
          style="fill:white;"/>
</svg>